<svg width="28" height="8" viewBox="0 0 28 8" fill="none" xmlns="http://www.w3.org/2000/svg">
<path d="M1 3.5C0.723858 3.5 0.5 3.72386 0.5 4C0.5 4.27614 0.723858 4.5 1 4.5L1 3.5ZM27.3536 4.35355C27.5488 4.15829 27.5488 3.84171 27.3536 3.64644L24.1716 0.464464C23.9763 0.269202 23.6597 0.269202 23.4645 0.464464C23.2692 0.659726 23.2692 0.976309 23.4645 1.17157L26.2929 4L23.4645 6.82843C23.2692 7.02369 23.2692 7.34027 23.4645 7.53553C23.6597 7.73079 23.9763 7.73079 24.1716 7.53553L27.3536 4.35355ZM1 4.5C1.03127 4.5 1.06252 4.5 1.09375 4.5C1.12497 4.5 1.15618 4.5 1.18736 4.5C1.21854 4.5 1.2497 4.5 1.28083 4.5C1.31197 4.5 1.34308 4.5 1.37416 4.5C1.40525 4.5 1.43632 4.5 1.46736 4.5C1.4984 4.5 1.52942 4.5 1.56042 4.5C1.59141 4.5 1.62238 4.5 1.65333 4.5C1.68428 4.5 1.71521 4.5 1.74611 4.5C1.77702 4.5 1.8079 4.5 1.83875 4.5C1.86961 4.5 1.90044 4.5 1.93125 4.5C1.96206 4.5 1.99285 4.5 2.02361 4.5C2.05437 4.5 2.08511 4.5 2.11583 4.5C2.14655 4.5 2.17724 4.5 2.20791 4.5C2.23858 4.5 2.26923 4.5 2.29985 4.5C2.33048 4.5 2.36108 4.5 2.39165 4.5C2.42223 4.5 2.45278 4.5 2.48331 4.5C2.51384 4.5 2.54435 4.5 2.57483 4.5C2.60531 4.5 2.63577 4.5 2.66621 4.5C2.69664 4.5 2.72706 4.5 2.75744 4.5C2.78783 4.5 2.8182 4.5 2.84854 4.5C2.87888 4.5 2.9092 4.5 2.93949 4.5C2.96979 4.5 3.00006 4.5 3.03031 4.5C3.06055 4.5 3.09078 4.5 3.12098 4.5C3.15118 4.5 3.18135 4.5 3.21151 4.5C3.24166 4.5 3.27179 4.5 3.30189 4.5C3.332 4.5 3.36208 4.5 3.39214 4.5C3.42219 4.5 3.45223 4.5 3.48224 4.5C3.51225 4.5 3.54224 4.5 3.5722 4.5C3.60216 4.5 3.6321 4.5 3.66201 4.5C3.69193 4.5 3.72182 4.5 3.75169 4.5C3.78156 4.5 3.8114 4.5 3.84122 4.5C3.87104 4.5 3.90083 4.5 3.93061 4.5C3.96038 4.5 3.99013 4.5 4.01985 4.5C4.04957 4.5 4.07927 4.5 4.10895 4.5C4.13862 4.5 4.16828 4.5 4.1979 4.5C4.22753 4.5 4.25714 4.5 4.28672 4.5C4.3163 4.5 4.34585 4.5 4.37538 4.5C4.40492 4.5 4.43442 4.5 4.46391 4.5C4.49339 4.5 4.52285 4.5 4.55229 4.5C4.58172 4.5 4.61113 4.5 4.64052 4.5C4.66991 4.5 4.69927 4.5 4.72861 4.5C4.75795 4.5 4.78726 4.5 4.81655 4.5C4.84584 4.5 4.87511 4.5 4.90435 4.5C4.93359 4.5 4.96281 4.5 4.992 4.5C5.0212 4.5 5.05037 4.5 5.07951 4.5C5.10866 4.5 5.13778 4.5 5.16687 4.5C5.19597 4.5 5.22504 4.5 5.25409 4.5C5.28313 4.5 5.31216 4.5 5.34116 4.5C5.37016 4.5 5.39913 4.5 5.42808 4.5C5.45703 4.5 5.48595 4.5 5.51486 4.5C5.54376 4.5 5.57263 4.5 5.60149 4.5C5.63034 4.5 5.65916 4.5 5.68797 4.5C5.71677 4.5 5.74555 4.5 5.7743 4.5C5.80306 4.5 5.83179 4.5 5.86049 4.5C5.8892 4.5 5.91788 4.5 5.94653 4.5C5.97519 4.5 6.00382 4.5 6.03243 4.5C6.06103 4.5 6.08961 4.5 6.11817 4.5C6.14673 4.5 6.17526 4.5 6.20377 4.5C6.23228 4.5 6.26076 4.5 6.28922 4.5C6.31768 4.5 6.34611 4.5 6.37452 4.5C6.40293 4.5 6.43131 4.5 6.45967 4.5C6.48803 4.5 6.51637 4.5 6.54468 4.5C6.57299 4.5 6.60127 4.5 6.62953 4.5C6.65779 4.5 6.68603 4.5 6.71424 4.5C6.74245 4.5 6.77063 4.5 6.7988 4.5C6.82696 4.5 6.85509 4.5 6.8832 4.5C6.91131 4.5 6.9394 4.5 6.96746 4.5C6.99552 4.5 7.02356 4.5 7.05157 4.5C7.07958 4.5 7.10757 4.5 7.13553 4.5C7.16349 4.5 7.19142 4.5 7.21934 4.5C7.24725 4.5 7.27513 4.5 7.30299 4.5C7.33085 4.5 7.35869 4.5 7.3865 4.5C7.41431 4.5 7.4421 4.5 7.46986 4.5C7.49762 4.5 7.52535 4.5 7.55306 4.5C7.58077 4.5 7.60846 4.5 7.63612 4.5C7.66378 4.5 7.69141 4.5 7.71902 4.5C7.74663 4.5 7.77422 4.5 7.80178 4.5C7.82934 4.5 7.85687 4.5 7.88438 4.5C7.91189 4.5 7.93937 4.5 7.96683 4.5C7.99429 4.5 8.02172 4.5 8.04912 4.5C8.07653 4.5 8.10391 4.5 8.13127 4.5C8.15863 4.5 8.18596 4.5 8.21326 4.5C8.24057 4.5 8.26785 4.5 8.2951 4.5C8.32236 4.5 8.34959 4.5 8.37679 4.5C8.404 4.5 8.43118 4.5 8.45833 4.5C8.48548 4.5 8.51261 4.5 8.53971 4.5C8.56681 4.5 8.59389 4.5 8.62094 4.5C8.64799 4.5 8.67502 4.5 8.70202 4.5C8.72902 4.5 8.75599 4.5 8.78294 4.5C8.80989 4.5 8.83681 4.5 8.86371 4.5C8.89061 4.5 8.91748 4.5 8.94433 4.5C8.97117 4.5 8.99799 4.5 9.02479 4.5C9.05158 4.5 9.07835 4.5 9.10509 4.5C9.13184 4.5 9.15856 4.5 9.18525 4.5C9.21194 4.5 9.23861 4.5 9.26525 4.5C9.29189 4.5 9.3185 4.5 9.34509 4.5C9.37168 4.5 9.39824 4.5 9.42478 4.5C9.45132 4.5 9.47783 4.5 9.50431 4.5C9.5308 4.5 9.55726 4.5 9.58369 4.5C9.61012 4.5 9.63653 4.5 9.66291 4.5C9.6893 4.5 9.71565 4.5 9.74198 4.5C9.76831 4.5 9.79462 4.5 9.82089 4.5C9.84717 4.5 9.87342 4.5 9.89965 4.5C9.92588 4.5 9.95208 4.5 9.97825 4.5C10.0044 4.5 10.0306 4.5 10.0567 4.5C10.0828 4.5 10.1089 4.5 10.135 4.5C10.161 4.5 10.1871 4.5 10.2131 4.5C10.2391 4.5 10.2651 4.5 10.2911 4.5C10.317 4.5 10.343 4.5 10.3689 4.5C10.3948 4.5 10.4207 4.5 10.4466 4.5C10.4724 4.5 10.4983 4.5 10.5241 4.5C10.5499 4.5 10.5757 4.5 10.6014 4.5C10.6272 4.5 10.6529 4.5 10.6786 4.5C10.7043 4.5 10.73 4.5 10.7556 4.5C10.7813 4.5 10.8069 4.5 10.8325 4.5C10.8581 4.5 10.8837 4.5 10.9092 4.5C10.9348 4.5 10.9603 4.5 10.9858 4.5C11.0113 4.5 11.0367 4.5 11.0622 4.5C11.0876 4.5 11.113 4.5 11.1384 4.5C11.1638 4.5 11.1891 4.5 11.2145 4.5C11.2398 4.5 11.2651 4.5 11.2904 4.5C11.3157 4.5 11.3409 4.5 11.3661 4.5C11.3914 4.5 11.4166 4.5 11.4417 4.5C11.4669 4.5 11.4921 4.5 11.5172 4.5C11.5423 4.5 11.5674 4.5 11.5925 4.5C11.6175 4.5 11.6426 4.5 11.6676 4.5C11.6926 4.5 11.7176 4.5 11.7426 4.5C11.7675 4.5 11.7924 4.5 11.8174 4.5C11.8423 4.5 11.8671 4.5 11.892 4.5C11.9168 4.5 11.9417 4.5 11.9665 4.5C11.9913 4.5 12.016 4.5 12.0408 4.5C12.0655 4.5 12.0903 4.5 12.1149 4.5C12.1396 4.5 12.1643 4.5 12.1889 4.5C12.2136 4.5 12.2382 4.5 12.2628 4.5C12.2874 4.5 12.3119 4.5 12.3364 4.5C12.361 4.5 12.3855 4.5 12.41 4.5C12.4344 4.5 12.4589 4.5 12.4833 4.5C12.5077 4.5 12.5321 4.5 12.5565 4.5C12.5809 4.5 12.6052 4.5 12.6295 4.5C12.6538 4.5 12.6781 4.5 12.7024 4.5C12.7266 4.5 12.7509 4.5 12.7751 4.5C12.7993 4.5 12.8235 4.5 12.8476 4.5C12.8718 4.5 12.8959 4.5 12.92 4.5C12.9441 4.5 12.9682 4.5 12.9922 4.5C13.0162 4.5 13.0403 4.5 13.0642 4.5C13.0882 4.5 13.1122 4.5 13.1361 4.5C13.1601 4.5 13.184 4.5 13.2078 4.5C13.2317 4.5 13.2556 4.5 13.2794 4.5C13.3032 4.5 13.327 4.5 13.3508 4.5C13.3746 4.5 13.3983 4.5 13.422 4.5C13.4457 4.5 13.4694 4.5 13.4931 4.5C13.5167 4.5 13.5404 4.5 13.564 4.5C13.5876 4.5 13.6112 4.5 13.6347 4.5C13.6583 4.5 13.6818 4.5 13.7053 4.5C13.7288 4.5 13.7522 4.5 13.7757 4.5C13.7991 4.5 13.8225 4.5 13.8459 4.5C13.8693 4.5 13.8927 4.5 13.916 4.5C13.9393 4.5 13.9626 4.5 13.9859 4.5C14.0092 4.5 14.0324 4.5 14.0556 4.5C14.0789 4.5 14.102 4.5 14.1252 4.5C14.1484 4.5 14.1715 4.5 14.1946 4.5C14.2177 4.5 14.2408 4.5 14.2639 4.5C14.2869 4.5 14.3099 4.5 14.3329 4.5C14.3559 4.5 14.3789 4.5 14.4018 4.5C14.4248 4.5 14.4477 4.5 14.4706 4.5C14.4935 4.5 14.5163 4.5 14.5392 4.5C14.562 4.5 14.5848 4.5 14.6076 4.5C14.6303 4.5 14.6531 4.5 14.6758 4.5C14.6985 4.5 14.7212 4.5 14.7439 4.5C14.7665 4.5 14.7892 4.5 14.8118 4.5C14.8344 4.5 14.857 4.5 14.8795 4.5C14.9021 4.5 14.9246 4.5 14.9471 4.5C14.9696 4.5 14.9921 4.5 15.0145 4.5C15.0369 4.5 15.0593 4.5 15.0817 4.5C15.1041 4.5 15.1265 4.5 15.1488 4.5C15.1711 4.5 15.1934 4.5 15.2157 4.5C15.2379 4.5 15.2602 4.5 15.2824 4.5C15.3046 4.5 15.3268 4.5 15.349 4.5C15.3711 4.5 15.3932 4.5 15.4153 4.5C15.4374 4.5 15.4595 4.5 15.4816 4.5C15.5036 4.5 15.5256 4.5 15.5476 4.5C15.5696 4.5 15.5916 4.5 15.6135 4.5C15.6354 4.5 15.6573 4.5 15.6792 4.5C15.7011 4.5 15.7229 4.5 15.7447 4.5C15.7665 4.5 15.7883 4.5 15.8101 4.5C15.8319 4.5 15.8536 4.5 15.8753 4.5C15.897 4.5 15.9187 4.5 15.9403 4.5C15.962 4.5 15.9836 4.5 16.0052 4.5C16.0268 4.5 16.0483 4.5 16.0698 4.5C16.0914 4.5 16.1129 4.5 16.1344 4.5C16.1558 4.5 16.1773 4.5 16.1987 4.5C16.2201 4.5 16.2415 4.5 16.2629 4.5C16.2842 4.5 16.3056 4.5 16.3269 4.5C16.3482 4.5 16.3694 4.5 16.3907 4.5C16.4119 4.5 16.4331 4.5 16.4543 4.5C16.4755 4.5 16.4967 4.5 16.5178 4.5C16.5389 4.5 16.56 4.5 16.5811 4.5C16.6022 4.5 16.6232 4.5 16.6443 4.5C16.6653 4.5 16.6863 4.5 16.7072 4.5C16.7282 4.5 16.7491 4.5 16.77 4.5C16.7909 4.5 16.8118 4.5 16.8326 4.5C16.8535 4.5 16.8743 4.5 16.8951 4.5C16.9158 4.5 16.9366 4.5 16.9573 4.5C16.9781 4.5 16.9987 4.5 17.0194 4.5C17.0401 4.5 17.0607 4.5 17.0813 4.5C17.1019 4.5 17.1225 4.5 17.1431 4.5C17.1636 4.5 17.1842 4.5 17.2047 4.5C17.2251 4.5 17.2456 4.5 17.266 4.5C17.2865 4.5 17.3069 4.5 17.3273 4.5C17.3476 4.5 17.368 4.5 17.3883 4.5C17.4086 4.5 17.4289 4.5 17.4492 4.5C17.4694 4.5 17.4897 4.5 17.5099 4.5C17.5301 4.5 17.5503 4.5 17.5704 4.5C17.5905 4.5 17.6107 4.5 17.6307 4.5C17.6508 4.5 17.6709 4.5 17.6909 4.5C17.7109 4.5 17.7309 4.5 17.7509 4.5C17.7709 4.5 17.7908 4.5 17.8107 4.5C17.8306 4.5 17.8505 4.5 17.8704 4.5C17.8902 4.5 17.91 4.5 17.9298 4.5C17.9496 4.5 17.9694 4.5 17.9891 4.5C18.0089 4.5 18.0286 4.5 18.0482 4.5C18.0679 4.5 18.0876 4.5 18.1072 4.5C18.1268 4.5 18.1464 4.5 18.1659 4.5C18.1855 4.5 18.205 4.5 18.2245 4.5C18.244 4.5 18.2635 4.5 18.2829 4.5C18.3023 4.5 18.3217 4.5 18.3411 4.5C18.3605 4.5 18.3799 4.5 18.3992 4.5C18.4185 4.5 18.4378 4.5 18.457 4.5C18.4763 4.5 18.4955 4.5 18.5147 4.5C18.5339 4.5 18.5531 4.5 18.5722 4.5C18.5914 4.5 18.6105 4.5 18.6296 4.5C18.6487 4.5 18.6677 4.5 18.6867 4.5C18.7057 4.5 18.7247 4.5 18.7437 4.5C18.7627 4.5 18.7816 4.5 18.8005 4.5C18.8194 4.5 18.8383 4.5 18.8571 4.5C18.876 4.5 18.8948 4.5 18.9135 4.5C18.9323 4.5 18.9511 4.5 18.9698 4.5C18.9885 4.5 19.0072 4.5 19.0259 4.5C19.0445 4.5 19.0632 4.5 19.0818 4.5C19.1004 4.5 19.119 4.5 19.1375 4.5C19.156 4.5 19.1746 4.5 19.193 4.5C19.2115 4.5 19.23 4.5 19.2484 4.5C19.2668 4.5 19.2852 4.5 19.3036 4.5C19.3219 4.5 19.3403 4.5 19.3586 4.5C19.3769 4.5 19.3951 4.5 19.4134 4.5C19.4316 4.5 19.4498 4.5 19.468 4.5C19.4862 4.5 19.5043 4.5 19.5225 4.5C19.5406 4.5 19.5587 4.5 19.5767 4.5C19.5948 4.5 19.6128 4.5 19.6308 4.5C19.6488 4.5 19.6668 4.5 19.6847 4.5C19.7027 4.5 19.7206 4.5 19.7384 4.5C19.7563 4.5 19.7742 4.5 19.792 4.5C19.8098 4.5 19.8276 4.5 19.8453 4.5C19.8631 4.5 19.8808 4.5 19.8985 4.5C19.9162 4.5 19.9339 4.5 19.9515 4.5C19.9691 4.5 19.9867 4.5 20.0043 4.5C20.0219 4.5 20.0394 4.5 20.0569 4.5C20.0744 4.5 20.0919 4.5 20.1094 4.5C20.1268 4.5 20.1442 4.5 20.1616 4.5C20.179 4.5 20.1964 4.5 20.2137 4.5C20.231 4.5 20.2483 4.5 20.2656 4.5C20.2829 4.5 20.3001 4.5 20.3173 4.5C20.3345 4.5 20.3517 4.5 20.3688 4.5C20.386 4.5 20.4031 4.5 20.4202 4.5C20.4373 4.5 20.4543 4.5 20.4713 4.5C20.4883 4.5 20.5053 4.5 20.5223 4.5C20.5393 4.5 20.5562 4.5 20.5731 4.5C20.59 4.5 20.6068 4.5 20.6237 4.5C20.6405 4.5 20.6573 4.5 20.6741 4.5C20.6909 4.5 20.7076 4.5 20.7243 4.5C20.741 4.5 20.7577 4.5 20.7744 4.5C20.791 4.5 20.8076 4.5 20.8242 4.5C20.8408 4.5 20.8574 4.5 20.8739 4.5C20.8904 4.5 20.9069 4.5 20.9234 4.5C20.9398 4.5 20.9563 4.5 20.9727 4.5C20.9891 4.5 21.0054 4.5 21.0218 4.5C21.0381 4.5 21.0544 4.5 21.0707 4.5C21.087 4.5 21.1032 4.5 21.1194 4.5C21.1357 4.5 21.1518 4.5 21.168 4.5C21.1841 4.5 21.2003 4.5 21.2164 4.5C21.2324 4.5 21.2485 4.5 21.2645 4.5C21.2806 4.5 21.2965 4.5 21.3125 4.5C21.3285 4.5 21.3444 4.5 21.3603 4.5C21.3762 4.5 21.3921 4.5 21.4079 4.5C21.4238 4.5 21.4396 4.5 21.4553 4.5C21.4711 4.5 21.4869 4.5 21.5026 4.5C21.5183 4.5 21.534 4.5 21.5496 4.5C21.5653 4.5 21.5809 4.5 21.5965 4.5C21.6121 4.5 21.6276 4.5 21.6432 4.5C21.6587 4.5 21.6742 4.5 21.6896 4.5C21.7051 4.5 21.7205 4.5 21.7359 4.5C21.7513 4.5 21.7667 4.5 21.782 4.5C21.7974 4.5 21.8127 4.5 21.8279 4.5C21.8432 4.5 21.8584 4.5 21.8737 4.5C21.8889 4.5 21.904 4.5 21.9192 4.5C21.9343 4.5 21.9495 4.5 21.9645 4.5C21.9796 4.5 21.9947 4.5 22.0097 4.5C22.0247 4.5 22.0397 4.5 22.0546 4.5C22.0696 4.5 22.0845 4.5 22.0994 4.5C22.1143 4.5 22.1292 4.5 22.144 4.5C22.1588 4.5 22.1736 4.5 22.1884 4.5C22.2031 4.5 22.2179 4.5 22.2326 4.5C22.2473 4.5 22.2619 4.5 22.2766 4.5C22.2912 4.5 22.3058 4.5 22.3204 4.5C22.335 4.5 22.3495 4.5 22.364 4.5C22.3785 4.5 22.393 4.5 22.4074 4.5C22.4219 4.5 22.4363 4.5 22.4507 4.5C22.4651 4.5 22.4794 4.5 22.4937 4.5C22.508 4.5 22.5223 4.5 22.5366 4.5C22.5508 4.5 22.5651 4.5 22.5792 4.5C22.5934 4.5 22.6076 4.5 22.6217 4.5C22.6358 4.5 22.6499 4.5 22.664 4.5C22.678 4.5 22.6921 4.5 22.7061 4.5C22.7201 4.5 22.734 4.5 22.748 4.5C22.7619 4.5 22.7758 4.5 22.7897 4.5C22.8035 4.5 22.8174 4.5 22.8312 4.5C22.845 4.5 22.8587 4.5 22.8725 4.5C22.8862 4.5 22.8999 4.5 22.9136 4.5C22.9272 4.5 22.9409 4.5 22.9545 4.5C22.9681 4.5 22.9817 4.5 22.9952 4.5C23.0088 4.5 23.0223 4.5 23.0357 4.5C23.0492 4.5 23.0627 4.5 23.0761 4.5C23.0895 4.5 23.1029 4.5 23.1162 4.5C23.1296 4.5 23.1429 4.5 23.1562 4.5C23.1695 4.5 23.1827 4.5 23.1959 4.5C23.2091 4.5 23.2223 4.5 23.2355 4.5C23.2486 4.5 23.2617 4.5 23.2748 4.5C23.2879 4.5 23.301 4.5 23.314 4.5C23.327 4.5 23.34 4.5 23.353 4.5C23.3659 4.5 23.3788 4.5 23.3917 4.5C23.4046 4.5 23.4175 4.5 23.4303 4.5C23.4431 4.5 23.4559 4.5 23.4687 4.5C23.4814 4.5 23.4942 4.5 23.5069 4.5C23.5196 4.5 23.5322 4.5 23.5449 4.5C23.5575 4.5 23.5701 4.5 23.5826 4.5C23.5952 4.5 23.6077 4.5 23.6202 4.5C23.6327 4.5 23.6452 4.5 23.6576 4.5C23.6701 4.5 23.6825 4.5 23.6948 4.5C23.7072 4.5 23.7195 4.5 23.7318 4.5C23.7441 4.5 23.7564 4.5 23.7686 4.5C23.7808 4.5 23.793 4.5 23.8052 4.5C23.8174 4.5 23.8295 4.5 23.8416 4.5C23.8537 4.5 23.8658 4.5 23.8778 4.5C23.8899 4.5 23.9019 4.5 23.9138 4.5C23.9258 4.5 23.9377 4.5 23.9496 4.5C23.9615 4.5 23.9734 4.5 23.9852 4.5C23.9971 4.5 24.0089 4.5 24.0207 4.5C24.0324 4.5 24.0442 4.5 24.0559 4.5C24.0676 4.5 24.0792 4.5 24.0909 4.5C24.1025 4.5 24.1141 4.5 24.1257 4.5C24.1372 4.5 24.1488 4.5 24.1603 4.5C24.1718 4.5 24.1833 4.5 24.1947 4.5C24.2061 4.5 24.2175 4.5 24.2289 4.5C24.2403 4.5 24.2516 4.5 24.2629 4.5C24.2742 4.5 24.2855 4.5 24.2967 4.5C24.308 4.5 24.3192 4.5 24.3303 4.5C24.3415 4.5 24.3526 4.5 24.3637 4.5C24.3748 4.5 24.3859 4.5 24.3969 4.5C24.408 4.5 24.419 4.5 24.43 4.5C24.4409 4.5 24.4519 4.5 24.4628 4.5C24.4737 4.5 24.4845 4.5 24.4954 4.5C24.5062 4.5 24.517 4.5 24.5278 4.5C24.5385 4.5 24.5493 4.5 24.56 4.5C24.5707 4.5 24.5813 4.5 24.5919 4.5C24.6026 4.5 24.6132 4.5 24.6237 4.5C24.6343 4.5 24.6448 4.5 24.6553 4.5C24.6658 4.5 24.6763 4.5 24.6867 4.5C24.6971 4.5 24.7075 4.5 24.7179 4.5C24.7283 4.5 24.7386 4.5 24.7489 4.5C24.7592 4.5 24.7694 4.5 24.7797 4.5C24.7899 4.5 24.8001 4.5 24.8102 4.5C24.8204 4.5 24.8305 4.5 24.8406 4.5C24.8507 4.5 24.8608 4.5 24.8708 4.5C24.8808 4.5 24.8908 4.5 24.9007 4.5C24.9107 4.5 24.9206 4.5 24.9305 4.5C24.9404 4.5 24.9502 4.5 24.9601 4.5C24.9699 4.5 24.9797 4.5 24.9894 4.5C24.9992 4.5 25.0089 4.5 25.0186 4.5C25.0282 4.5 25.0379 4.5 25.0475 4.5C25.0571 4.5 25.0667 4.5 25.0762 4.5C25.0858 4.5 25.0953 4.5 25.1048 4.5C25.1142 4.5 25.1237 4.5 25.1331 4.5C25.1425 4.5 25.1519 4.5 25.1612 4.5C25.1705 4.5 25.1798 4.5 25.1891 4.5C25.1984 4.5 25.2076 4.5 25.2168 4.5C25.226 4.5 25.2352 4.5 25.2443 4.5C25.2535 4.5 25.2626 4.5 25.2716 4.5C25.2807 4.5 25.2897 4.5 25.2987 4.5C25.3077 4.5 25.3167 4.5 25.3256 4.5C25.3345 4.5 25.3434 4.5 25.3523 4.5C25.3611 4.5 25.37 4.5 25.3787 4.5C25.3875 4.5 25.3963 4.5 25.405 4.5C25.4137 4.5 25.4224 4.5 25.4311 4.5C25.4397 4.5 25.4483 4.5 25.4569 4.5C25.4655 4.5 25.474 4.5 25.4825 4.5C25.4911 4.5 25.4995 4.5 25.508 4.5C25.5164 4.5 25.5248 4.5 25.5332 4.5C25.5416 4.5 25.5499 4.5 25.5582 4.5C25.5665 4.5 25.5748 4.5 25.583 4.5C25.5912 4.5 25.5994 4.5 25.6076 4.5C25.6158 4.5 25.6239 4.5 25.632 4.5C25.6401 4.5 25.6482 4.5 25.6562 4.5C25.6642 4.5 25.6722 4.5 25.6802 4.5C25.6881 4.5 25.696 4.5 25.7039 4.5C25.7118 4.5 25.7197 4.5 25.7275 4.5C25.7353 4.5 25.7431 4.5 25.7508 4.5C25.7586 4.5 25.7663 4.5 25.7739 4.5C25.7816 4.5 25.7893 4.5 25.7969 4.5C25.8045 4.5 25.812 4.5 25.8196 4.5C25.8271 4.5 25.8346 4.5 25.8421 4.5C25.8495 4.5 25.857 4.5 25.8644 4.5C25.8718 4.5 25.8791 4.5 25.8865 4.5C25.8938 4.5 25.9011 4.5 25.9083 4.5C25.9156 4.5 25.9228 4.5 25.93 4.5C25.9372 4.5 25.9443 4.5 25.9514 4.5C25.9585 4.5 25.9656 4.5 25.9727 4.5C25.9797 4.5 25.9867 4.5 25.9937 4.5C26.0007 4.5 26.0076 4.5 26.0145 4.5C26.0214 4.5 26.0283 4.5 26.0351 4.5C26.0419 4.5 26.0487 4.5 26.0555 4.5C26.0623 4.5 26.069 4.5 26.0757 4.5C26.0824 4.5 26.089 4.5 26.0956 4.5C26.1023 4.5 26.1088 4.5 26.1154 4.5C26.1219 4.5 26.1284 4.5 26.1349 4.5C26.1414 4.5 26.1478 4.5 26.1542 4.5C26.1607 4.5 26.167 4.5 26.1734 4.5C26.1797 4.5 26.186 4.5 26.1923 4.5C26.1985 4.5 26.2048 4.5 26.2109 4.5C26.2171 4.5 26.2233 4.5 26.2294 4.5C26.2355 4.5 26.2416 4.5 26.2477 4.5C26.2537 4.5 26.2597 4.5 26.2657 4.5C26.2717 4.5 26.2776 4.5 26.2835 4.5C26.2895 4.5 26.2953 4.5 26.3012 4.5C26.307 4.5 26.3128 4.5 26.3186 4.5C26.3243 4.5 26.3301 4.5 26.3357 4.5C26.3414 4.5 26.3471 4.5 26.3527 4.5C26.3583 4.5 26.3639 4.5 26.3695 4.5C26.375 4.5 26.3805 4.5 26.386 4.5C26.3915 4.5 26.3969 4.5 26.4023 4.5C26.4077 4.5 26.4131 4.5 26.4184 4.5C26.4238 4.5 26.4291 4.5 26.4343 4.5C26.4396 4.5 26.4448 4.5 26.45 4.5C26.4552 4.5 26.4604 4.5 26.4655 4.5C26.4706 4.5 26.4757 4.5 26.4807 4.5C26.4858 4.5 26.4908 4.5 26.4958 4.5C26.5007 4.5 26.5057 4.5 26.5106 4.5C26.5155 4.5 26.5203 4.5 26.5252 4.5C26.53 4.5 26.5348 4.5 26.5395 4.5C26.5443 4.5 26.549 4.5 26.5537 4.5C26.5584 4.5 26.563 4.5 26.5676 4.5C26.5722 4.5 26.5768 4.5 26.5814 4.5C26.5859 4.5 26.5904 4.5 26.5949 4.5C26.5993 4.5 26.6038 4.5 26.6082 4.5C26.6126 4.5 26.6169 4.5 26.6212 4.5C26.6255 4.5 26.6298 4.5 26.6341 4.5C26.6383 4.5 26.6425 4.5 26.6467 4.5C26.6509 4.5 26.655 4.5 26.6591 4.5C26.6632 4.5 26.6673 4.5 26.6713 4.5C26.6754 4.5 26.6793 4.5 26.6833 4.5C26.6873 4.5 26.6912 4.5 26.6951 4.5C26.6989 4.5 26.7028 4.5 26.7066 4.5C26.7104 4.5 26.7142 4.5 26.7179 4.5C26.7217 4.5 26.7254 4.5 26.729 4.5C26.7327 4.5 26.7363 4.5 26.7399 4.5C26.7435 4.5 26.747 4.5 26.7506 4.5C26.7541 4.5 26.7576 4.5 26.761 4.5C26.7644 4.5 26.7678 4.5 26.7712 4.5C26.7746 4.5 26.7779 4.5 26.7812 4.5C26.7845 4.5 26.7878 4.5 26.791 4.5C26.7942 4.5 26.7974 4.5 26.8005 4.5C26.8037 4.5 26.8068 4.5 26.8099 4.5C26.813 4.5 26.816 4.5 26.819 4.5C26.822 4.5 26.825 4.5 26.8279 4.5C26.8308 4.5 26.8337 4.5 26.8366 4.5C26.8394 4.5 26.8422 4.5 26.845 4.5C26.8478 4.5 26.8505 4.5 26.8532 4.5C26.8559 4.5 26.8586 4.5 26.8612 4.5C26.8639 4.5 26.8665 4.5 26.869 4.5C26.8716 4.5 26.8741 4.5 26.8766 4.5C26.8791 4.5 26.8815 4.5 26.8839 4.5C26.8863 4.5 26.8887 4.5 26.891 4.5C26.8934 4.5 26.8957 4.5 26.8979 4.5C26.9002 4.5 26.9024 4.5 26.9046 4.5C26.9068 4.5 26.9089 4.5 26.911 4.5C26.9131 4.5 26.9152 4.5 26.9173 4.5C26.9193 4.5 26.9213 4.5 26.9232 4.5C26.9252 4.5 26.9271 4.5 26.929 4.5C26.9309 4.5 26.9328 4.5 26.9346 4.5C26.9364 4.5 26.9382 4.5 26.9399 4.5C26.9416 4.5 26.9433 4.5 26.945 4.5C26.9467 4.5 26.9483 4.5 26.9499 4.5C26.9515 4.5 26.953 4.5 26.9545 4.5C26.956 4.5 26.9575 4.5 26.9589 4.5C26.9604 4.5 26.9618 4.5 26.9631 4.5C26.9645 4.5 26.9658 4.5 26.9671 4.5C26.9684 4.5 26.9696 4.5 26.9709 4.5C26.9721 4.5 26.9732 4.5 26.9744 4.5C26.9755 4.5 26.9766 4.5 26.9777 4.5C26.9787 4.5 26.9798 4.5 26.9807 4.5C26.9817 4.5 26.9827 4.5 26.9836 4.5C26.9845 4.5 26.9854 4.5 26.9862 4.5C26.987 4.5 26.9878 4.5 26.9886 4.5C26.9894 4.5 26.9901 4.5 26.9908 4.5C26.9914 4.5 26.9921 4.5 26.9927 4.5C26.9933 4.5 26.9939 4.5 26.9944 4.5C26.9949 4.5 26.9954 4.5 26.9959 4.5C26.9963 4.5 26.9968 4.5 26.9971 4.5C26.9975 4.5 26.9979 4.5 26.9982 4.5C26.9985 4.5 26.9987 4.5 26.999 4.5C26.9992 4.5 26.9994 4.5 26.9995 4.5C26.9997 4.5 26.9998 4.5 26.9999 4.5C27 4.5 27 4.5 27 4C27 3.5 27 3.5 26.9999 3.5C26.9998 3.5 26.9997 3.5 26.9995 3.5C26.9994 3.5 26.9992 3.5 26.999 3.5C26.9987 3.5 26.9985 3.5 26.9982 3.5C26.9979 3.5 26.9975 3.5 26.9971 3.5C26.9968 3.5 26.9963 3.5 26.9959 3.5C26.9954 3.5 26.9949 3.5 26.9944 3.5C26.9939 3.5 26.9933 3.5 26.9927 3.5C26.9921 3.5 26.9914 3.5 26.9908 3.5C26.9901 3.5 26.9894 3.5 26.9886 3.5C26.9878 3.5 26.987 3.5 26.9862 3.5C26.9854 3.5 26.9845 3.5 26.9836 3.5C26.9827 3.5 26.9817 3.5 26.9807 3.5C26.9798 3.5 26.9787 3.5 26.9777 3.5C26.9766 3.5 26.9755 3.5 26.9744 3.5C26.9732 3.5 26.9721 3.5 26.9709 3.5C26.9696 3.5 26.9684 3.5 26.9671 3.5C26.9658 3.5 26.9645 3.5 26.9631 3.5C26.9618 3.5 26.9604 3.5 26.9589 3.5C26.9575 3.5 26.956 3.5 26.9545 3.5C26.953 3.5 26.9515 3.5 26.9499 3.5C26.9483 3.5 26.9467 3.5 26.945 3.5C26.9433 3.5 26.9416 3.5 26.9399 3.5C26.9382 3.5 26.9364 3.5 26.9346 3.5C26.9328 3.5 26.9309 3.5 26.929 3.5C26.9271 3.5 26.9252 3.5 26.9232 3.5C26.9213 3.5 26.9193 3.5 26.9173 3.5C26.9152 3.5 26.9131 3.5 26.911 3.5C26.9089 3.5 26.9068 3.5 26.9046 3.5C26.9024 3.5 26.9002 3.5 26.8979 3.5C26.8957 3.5 26.8934 3.5 26.891 3.5C26.8887 3.5 26.8863 3.5 26.8839 3.5C26.8815 3.5 26.8791 3.5 26.8766 3.5C26.8741 3.5 26.8716 3.5 26.869 3.5C26.8665 3.5 26.8639 3.5 26.8612 3.5C26.8586 3.5 26.8559 3.5 26.8532 3.5C26.8505 3.5 26.8478 3.5 26.845 3.5C26.8422 3.5 26.8394 3.5 26.8366 3.5C26.8337 3.5 26.8308 3.5 26.8279 3.5C26.825 3.5 26.822 3.5 26.819 3.5C26.816 3.5 26.813 3.5 26.8099 3.5C26.8068 3.5 26.8037 3.5 26.8005 3.5C26.7974 3.5 26.7942 3.5 26.791 3.5C26.7878 3.5 26.7845 3.5 26.7812 3.5C26.7779 3.5 26.7746 3.5 26.7712 3.5C26.7678 3.5 26.7644 3.5 26.761 3.5C26.7576 3.5 26.7541 3.5 26.7506 3.5C26.747 3.5 26.7435 3.5 26.7399 3.5C26.7363 3.5 26.7327 3.5 26.729 3.5C26.7254 3.5 26.7217 3.5 26.7179 3.5C26.7142 3.5 26.7104 3.5 26.7066 3.5C26.7028 3.5 26.6989 3.5 26.6951 3.5C26.6912 3.5 26.6873 3.5 26.6833 3.5C26.6793 3.5 26.6754 3.5 26.6713 3.5C26.6673 3.5 26.6632 3.5 26.6591 3.5C26.655 3.5 26.6509 3.5 26.6467 3.5C26.6425 3.5 26.6383 3.5 26.6341 3.5C26.6298 3.5 26.6255 3.5 26.6212 3.5C26.6169 3.5 26.6126 3.5 26.6082 3.5C26.6038 3.5 26.5993 3.5 26.5949 3.5C26.5904 3.5 26.5859 3.5 26.5814 3.5C26.5768 3.5 26.5722 3.5 26.5676 3.5C26.563 3.5 26.5584 3.5 26.5537 3.5C26.549 3.5 26.5443 3.5 26.5395 3.5C26.5348 3.5 26.53 3.5 26.5252 3.5C26.5203 3.5 26.5155 3.5 26.5106 3.5C26.5057 3.5 26.5007 3.5 26.4958 3.5C26.4908 3.5 26.4858 3.5 26.4807 3.5C26.4757 3.5 26.4706 3.5 26.4655 3.5C26.4604 3.5 26.4552 3.5 26.45 3.5C26.4448 3.5 26.4396 3.5 26.4343 3.5C26.4291 3.5 26.4238 3.5 26.4184 3.5C26.4131 3.5 26.4077 3.5 26.4023 3.5C26.3969 3.5 26.3915 3.5 26.386 3.5C26.3805 3.5 26.375 3.5 26.3695 3.5C26.3639 3.5 26.3583 3.5 26.3527 3.5C26.3471 3.5 26.3414 3.5 26.3357 3.5C26.3301 3.5 26.3243 3.5 26.3186 3.5C26.3128 3.5 26.307 3.5 26.3012 3.5C26.2953 3.5 26.2895 3.5 26.2835 3.5C26.2776 3.5 26.2717 3.5 26.2657 3.5C26.2597 3.5 26.2537 3.5 26.2477 3.5C26.2416 3.5 26.2355 3.5 26.2294 3.5C26.2233 3.5 26.2171 3.5 26.2109 3.5C26.2048 3.5 26.1985 3.5 26.1923 3.5C26.186 3.5 26.1797 3.5 26.1734 3.5C26.167 3.5 26.1607 3.5 26.1542 3.5C26.1478 3.5 26.1414 3.5 26.1349 3.5C26.1284 3.5 26.1219 3.5 26.1154 3.5C26.1088 3.5 26.1023 3.5 26.0956 3.5C26.089 3.5 26.0824 3.5 26.0757 3.5C26.069 3.5 26.0623 3.5 26.0555 3.5C26.0487 3.5 26.0419 3.5 26.0351 3.5C26.0283 3.5 26.0214 3.5 26.0145 3.5C26.0076 3.5 26.0007 3.5 25.9937 3.5C25.9867 3.5 25.9797 3.5 25.9727 3.5C25.9656 3.5 25.9585 3.5 25.9514 3.5C25.9443 3.5 25.9372 3.5 25.93 3.5C25.9228 3.5 25.9156 3.5 25.9083 3.5C25.9011 3.5 25.8938 3.5 25.8865 3.5C25.8791 3.5 25.8718 3.5 25.8644 3.5C25.857 3.5 25.8495 3.5 25.8421 3.5C25.8346 3.5 25.8271 3.5 25.8196 3.5C25.812 3.5 25.8045 3.5 25.7969 3.5C25.7893 3.5 25.7816 3.5 25.7739 3.5C25.7663 3.5 25.7586 3.5 25.7508 3.5C25.7431 3.5 25.7353 3.5 25.7275 3.5C25.7197 3.5 25.7118 3.5 25.7039 3.5C25.696 3.5 25.6881 3.5 25.6802 3.5C25.6722 3.5 25.6642 3.5 25.6562 3.5C25.6482 3.5 25.6401 3.5 25.632 3.5C25.6239 3.5 25.6158 3.5 25.6076 3.5C25.5994 3.5 25.5912 3.5 25.583 3.5C25.5748 3.5 25.5665 3.5 25.5582 3.5C25.5499 3.5 25.5416 3.5 25.5332 3.5C25.5248 3.5 25.5164 3.5 25.508 3.5C25.4995 3.5 25.4911 3.5 25.4825 3.5C25.474 3.5 25.4655 3.5 25.4569 3.5C25.4483 3.5 25.4397 3.5 25.4311 3.5C25.4224 3.5 25.4137 3.5 25.405 3.5C25.3963 3.5 25.3875 3.5 25.3787 3.5C25.37 3.5 25.3611 3.5 25.3523 3.5C25.3434 3.5 25.3345 3.5 25.3256 3.5C25.3167 3.5 25.3077 3.5 25.2987 3.5C25.2897 3.5 25.2807 3.5 25.2716 3.5C25.2626 3.5 25.2535 3.5 25.2443 3.5C25.2352 3.5 25.226 3.5 25.2168 3.5C25.2076 3.5 25.1984 3.5 25.1891 3.5C25.1798 3.5 25.1705 3.5 25.1612 3.5C25.1519 3.5 25.1425 3.5 25.1331 3.5C25.1237 3.5 25.1142 3.5 25.1048 3.5C25.0953 3.5 25.0858 3.5 25.0762 3.5C25.0667 3.5 25.0571 3.5 25.0475 3.5C25.0379 3.5 25.0282 3.5 25.0186 3.5C25.0089 3.5 24.9992 3.5 24.9894 3.5C24.9797 3.5 24.9699 3.5 24.9601 3.5C24.9502 3.5 24.9404 3.5 24.9305 3.5C24.9206 3.5 24.9107 3.5 24.9007 3.5C24.8908 3.5 24.8808 3.5 24.8708 3.5C24.8608 3.5 24.8507 3.5 24.8406 3.5C24.8305 3.5 24.8204 3.5 24.8102 3.5C24.8001 3.5 24.7899 3.5 24.7797 3.5C24.7694 3.5 24.7592 3.5 24.7489 3.5C24.7386 3.5 24.7283 3.5 24.7179 3.5C24.7075 3.5 24.6971 3.5 24.6867 3.5C24.6763 3.5 24.6658 3.5 24.6553 3.5C24.6448 3.5 24.6343 3.5 24.6237 3.5C24.6132 3.5 24.6026 3.5 24.5919 3.5C24.5813 3.5 24.5707 3.5 24.56 3.5C24.5493 3.5 24.5385 3.5 24.5278 3.5C24.517 3.5 24.5062 3.5 24.4954 3.5C24.4845 3.5 24.4737 3.5 24.4628 3.5C24.4519 3.5 24.4409 3.5 24.43 3.5C24.419 3.5 24.408 3.5 24.3969 3.5C24.3859 3.5 24.3748 3.5 24.3637 3.5C24.3526 3.5 24.3415 3.5 24.3303 3.5C24.3192 3.5 24.308 3.5 24.2967 3.5C24.2855 3.5 24.2742 3.5 24.2629 3.5C24.2516 3.5 24.2403 3.5 24.2289 3.5C24.2175 3.5 24.2061 3.5 24.1947 3.5C24.1833 3.5 24.1718 3.5 24.1603 3.5C24.1488 3.5 24.1372 3.5 24.1257 3.5C24.1141 3.5 24.1025 3.5 24.0909 3.5C24.0792 3.5 24.0676 3.5 24.0559 3.5C24.0442 3.5 24.0324 3.5 24.0207 3.5C24.0089 3.5 23.9971 3.5 23.9852 3.5C23.9734 3.5 23.9615 3.5 23.9496 3.5C23.9377 3.5 23.9258 3.5 23.9138 3.5C23.9019 3.5 23.8899 3.5 23.8778 3.5C23.8658 3.5 23.8537 3.5 23.8416 3.5C23.8295 3.5 23.8174 3.5 23.8052 3.5C23.793 3.5 23.7808 3.5 23.7686 3.5C23.7564 3.5 23.7441 3.5 23.7318 3.5C23.7195 3.5 23.7072 3.5 23.6948 3.5C23.6825 3.5 23.6701 3.5 23.6576 3.5C23.6452 3.5 23.6327 3.5 23.6202 3.5C23.6077 3.5 23.5952 3.5 23.5826 3.5C23.5701 3.5 23.5575 3.5 23.5449 3.5C23.5322 3.5 23.5196 3.5 23.5069 3.5C23.4942 3.5 23.4814 3.5 23.4687 3.5C23.4559 3.5 23.4431 3.5 23.4303 3.5C23.4175 3.5 23.4046 3.5 23.3917 3.5C23.3788 3.5 23.3659 3.5 23.353 3.5C23.34 3.5 23.327 3.5 23.314 3.5C23.301 3.5 23.2879 3.5 23.2748 3.5C23.2617 3.5 23.2486 3.5 23.2355 3.5C23.2223 3.5 23.2091 3.5 23.1959 3.5C23.1827 3.5 23.1695 3.5 23.1562 3.5C23.1429 3.5 23.1296 3.5 23.1162 3.5C23.1029 3.5 23.0895 3.5 23.0761 3.5C23.0627 3.5 23.0492 3.5 23.0357 3.5C23.0223 3.5 23.0088 3.5 22.9952 3.5C22.9817 3.5 22.9681 3.5 22.9545 3.5C22.9409 3.5 22.9272 3.5 22.9136 3.5C22.8999 3.5 22.8862 3.5 22.8725 3.5C22.8587 3.5 22.845 3.5 22.8312 3.5C22.8174 3.5 22.8035 3.5 22.7897 3.5C22.7758 3.5 22.7619 3.5 22.748 3.5C22.734 3.5 22.7201 3.5 22.7061 3.5C22.6921 3.5 22.678 3.5 22.664 3.5C22.6499 3.5 22.6358 3.5 22.6217 3.5C22.6076 3.5 22.5934 3.5 22.5792 3.5C22.5651 3.5 22.5508 3.5 22.5366 3.5C22.5223 3.5 22.508 3.5 22.4937 3.5C22.4794 3.5 22.4651 3.5 22.4507 3.5C22.4363 3.5 22.4219 3.5 22.4074 3.5C22.393 3.5 22.3785 3.5 22.364 3.5C22.3495 3.5 22.335 3.5 22.3204 3.5C22.3058 3.5 22.2912 3.5 22.2766 3.5C22.2619 3.5 22.2473 3.5 22.2326 3.5C22.2179 3.5 22.2031 3.5 22.1884 3.5C22.1736 3.5 22.1588 3.5 22.144 3.5C22.1292 3.5 22.1143 3.5 22.0994 3.5C22.0845 3.5 22.0696 3.5 22.0546 3.5C22.0397 3.5 22.0247 3.5 22.0097 3.5C21.9947 3.5 21.9796 3.5 21.9645 3.5C21.9495 3.5 21.9343 3.5 21.9192 3.5C21.904 3.5 21.8889 3.5 21.8737 3.5C21.8584 3.5 21.8432 3.5 21.8279 3.5C21.8127 3.5 21.7974 3.5 21.782 3.5C21.7667 3.5 21.7513 3.5 21.7359 3.5C21.7205 3.5 21.7051 3.5 21.6896 3.5C21.6742 3.5 21.6587 3.5 21.6432 3.5C21.6276 3.5 21.6121 3.5 21.5965 3.5C21.5809 3.5 21.5653 3.5 21.5496 3.5C21.534 3.5 21.5183 3.5 21.5026 3.5C21.4869 3.5 21.4711 3.5 21.4553 3.5C21.4396 3.5 21.4238 3.5 21.4079 3.5C21.3921 3.5 21.3762 3.5 21.3603 3.5C21.3444 3.5 21.3285 3.5 21.3125 3.5C21.2965 3.5 21.2806 3.5 21.2645 3.5C21.2485 3.5 21.2324 3.5 21.2164 3.5C21.2003 3.5 21.1841 3.5 21.168 3.5C21.1518 3.5 21.1357 3.5 21.1194 3.5C21.1032 3.5 21.087 3.5 21.0707 3.5C21.0544 3.5 21.0381 3.5 21.0218 3.5C21.0054 3.5 20.9891 3.5 20.9727 3.5C20.9563 3.5 20.9398 3.5 20.9234 3.5C20.9069 3.5 20.8904 3.5 20.8739 3.5C20.8574 3.5 20.8408 3.5 20.8242 3.5C20.8076 3.5 20.791 3.5 20.7744 3.5C20.7577 3.5 20.741 3.5 20.7243 3.5C20.7076 3.5 20.6909 3.5 20.6741 3.5C20.6573 3.5 20.6405 3.5 20.6237 3.5C20.6068 3.5 20.59 3.5 20.5731 3.5C20.5562 3.5 20.5393 3.5 20.5223 3.5C20.5053 3.5 20.4883 3.5 20.4713 3.5C20.4543 3.5 20.4373 3.5 20.4202 3.5C20.4031 3.5 20.386 3.5 20.3688 3.5C20.3517 3.5 20.3345 3.5 20.3173 3.5C20.3001 3.5 20.2829 3.5 20.2656 3.5C20.2483 3.5 20.231 3.5 20.2137 3.5C20.1964 3.5 20.179 3.5 20.1616 3.5C20.1442 3.5 20.1268 3.5 20.1094 3.5C20.0919 3.5 20.0744 3.5 20.0569 3.5C20.0394 3.5 20.0219 3.5 20.0043 3.5C19.9867 3.5 19.9691 3.5 19.9515 3.5C19.9339 3.5 19.9162 3.5 19.8985 3.5C19.8808 3.5 19.8631 3.5 19.8453 3.5C19.8276 3.5 19.8098 3.5 19.792 3.5C19.7742 3.5 19.7563 3.5 19.7384 3.5C19.7206 3.5 19.7027 3.5 19.6847 3.5C19.6668 3.5 19.6488 3.5 19.6308 3.5C19.6128 3.5 19.5948 3.5 19.5767 3.5C19.5587 3.5 19.5406 3.5 19.5225 3.5C19.5043 3.5 19.4862 3.5 19.468 3.5C19.4498 3.5 19.4316 3.5 19.4134 3.5C19.3951 3.5 19.3769 3.5 19.3586 3.5C19.3403 3.5 19.3219 3.5 19.3036 3.5C19.2852 3.5 19.2668 3.5 19.2484 3.5C19.23 3.5 19.2115 3.5 19.193 3.5C19.1746 3.5 19.156 3.5 19.1375 3.5C19.119 3.5 19.1004 3.5 19.0818 3.5C19.0632 3.5 19.0445 3.5 19.0259 3.5C19.0072 3.5 18.9885 3.5 18.9698 3.5C18.9511 3.5 18.9323 3.5 18.9135 3.5C18.8948 3.5 18.876 3.5 18.8571 3.5C18.8383 3.5 18.8194 3.5 18.8005 3.5C18.7816 3.5 18.7627 3.5 18.7437 3.5C18.7247 3.5 18.7057 3.5 18.6867 3.5C18.6677 3.5 18.6487 3.5 18.6296 3.5C18.6105 3.5 18.5914 3.5 18.5722 3.5C18.5531 3.5 18.5339 3.5 18.5147 3.5C18.4955 3.5 18.4763 3.5 18.457 3.5C18.4378 3.5 18.4185 3.5 18.3992 3.5C18.3799 3.5 18.3605 3.5 18.3411 3.5C18.3217 3.5 18.3023 3.5 18.2829 3.5C18.2635 3.5 18.244 3.5 18.2245 3.5C18.205 3.5 18.1855 3.5 18.1659 3.5C18.1464 3.5 18.1268 3.5 18.1072 3.5C18.0876 3.5 18.0679 3.5 18.0482 3.5C18.0286 3.5 18.0089 3.5 17.9891 3.5C17.9694 3.5 17.9496 3.5 17.9298 3.5C17.91 3.5 17.8902 3.5 17.8704 3.5C17.8505 3.5 17.8306 3.5 17.8107 3.5C17.7908 3.5 17.7709 3.5 17.7509 3.5C17.7309 3.5 17.7109 3.5 17.6909 3.5C17.6709 3.5 17.6508 3.5 17.6307 3.5C17.6107 3.5 17.5905 3.5 17.5704 3.5C17.5503 3.5 17.5301 3.5 17.5099 3.5C17.4897 3.5 17.4694 3.5 17.4492 3.5C17.4289 3.5 17.4086 3.5 17.3883 3.5C17.368 3.5 17.3476 3.5 17.3273 3.5C17.3069 3.5 17.2865 3.5 17.266 3.5C17.2456 3.5 17.2251 3.5 17.2047 3.5C17.1842 3.5 17.1636 3.5 17.1431 3.5C17.1225 3.5 17.1019 3.5 17.0813 3.5C17.0607 3.5 17.0401 3.5 17.0194 3.5C16.9987 3.5 16.9781 3.5 16.9573 3.5C16.9366 3.5 16.9158 3.5 16.8951 3.5C16.8743 3.5 16.8535 3.5 16.8326 3.5C16.8118 3.5 16.7909 3.5 16.77 3.5C16.7491 3.5 16.7282 3.5 16.7072 3.5C16.6863 3.5 16.6653 3.5 16.6443 3.5C16.6232 3.5 16.6022 3.5 16.5811 3.5C16.56 3.5 16.5389 3.5 16.5178 3.5C16.4967 3.5 16.4755 3.5 16.4543 3.5C16.4331 3.5 16.4119 3.5 16.3907 3.5C16.3694 3.5 16.3482 3.5 16.3269 3.5C16.3056 3.5 16.2842 3.5 16.2629 3.5C16.2415 3.5 16.2201 3.5 16.1987 3.5C16.1773 3.5 16.1558 3.5 16.1344 3.5C16.1129 3.5 16.0914 3.5 16.0698 3.5C16.0483 3.5 16.0268 3.5 16.0052 3.5C15.9836 3.5 15.962 3.5 15.9403 3.5C15.9187 3.5 15.897 3.5 15.8753 3.5C15.8536 3.5 15.8319 3.5 15.8101 3.5C15.7883 3.5 15.7665 3.5 15.7447 3.5C15.7229 3.5 15.7011 3.5 15.6792 3.5C15.6573 3.5 15.6354 3.5 15.6135 3.5C15.5916 3.5 15.5696 3.5 15.5476 3.5C15.5256 3.5 15.5036 3.5 15.4816 3.5C15.4595 3.5 15.4374 3.5 15.4153 3.5C15.3932 3.5 15.3711 3.5 15.349 3.5C15.3268 3.5 15.3046 3.5 15.2824 3.5C15.2602 3.5 15.2379 3.5 15.2157 3.5C15.1934 3.5 15.1711 3.5 15.1488 3.5C15.1265 3.5 15.1041 3.5 15.0817 3.5C15.0593 3.5 15.0369 3.5 15.0145 3.5C14.9921 3.5 14.9696 3.5 14.9471 3.5C14.9246 3.5 14.9021 3.5 14.8795 3.5C14.857 3.5 14.8344 3.5 14.8118 3.5C14.7892 3.5 14.7665 3.5 14.7439 3.5C14.7212 3.5 14.6985 3.5 14.6758 3.5C14.6531 3.5 14.6303 3.5 14.6076 3.5C14.5848 3.5 14.562 3.5 14.5392 3.5C14.5163 3.5 14.4935 3.5 14.4706 3.5C14.4477 3.5 14.4248 3.5 14.4018 3.5C14.3789 3.5 14.3559 3.5 14.3329 3.5C14.3099 3.5 14.2869 3.5 14.2639 3.5C14.2408 3.5 14.2177 3.5 14.1946 3.5C14.1715 3.5 14.1484 3.5 14.1252 3.5C14.102 3.5 14.0789 3.5 14.0556 3.5C14.0324 3.5 14.0092 3.5 13.9859 3.5C13.9626 3.5 13.9393 3.5 13.916 3.5C13.8927 3.5 13.8693 3.5 13.8459 3.5C13.8225 3.5 13.7991 3.5 13.7757 3.5C13.7522 3.5 13.7288 3.5 13.7053 3.5C13.6818 3.5 13.6583 3.5 13.6347 3.5C13.6112 3.5 13.5876 3.5 13.564 3.5C13.5404 3.5 13.5167 3.5 13.4931 3.5C13.4694 3.5 13.4457 3.5 13.422 3.5C13.3983 3.5 13.3746 3.5 13.3508 3.5C13.327 3.5 13.3032 3.5 13.2794 3.5C13.2556 3.5 13.2317 3.5 13.2078 3.5C13.184 3.5 13.1601 3.5 13.1361 3.5C13.1122 3.5 13.0882 3.5 13.0642 3.5C13.0403 3.5 13.0162 3.5 12.9922 3.5C12.9682 3.5 12.9441 3.5 12.92 3.5C12.8959 3.5 12.8718 3.5 12.8476 3.5C12.8235 3.5 12.7993 3.5 12.7751 3.5C12.7509 3.5 12.7266 3.5 12.7024 3.5C12.6781 3.5 12.6538 3.5 12.6295 3.5C12.6052 3.5 12.5809 3.5 12.5565 3.5C12.5321 3.5 12.5077 3.5 12.4833 3.5C12.4589 3.5 12.4344 3.5 12.41 3.5C12.3855 3.5 12.361 3.5 12.3364 3.5C12.3119 3.5 12.2874 3.5 12.2628 3.5C12.2382 3.5 12.2136 3.5 12.1889 3.5C12.1643 3.5 12.1396 3.5 12.1149 3.5C12.0903 3.5 12.0655 3.5 12.0408 3.5C12.016 3.5 11.9913 3.5 11.9665 3.5C11.9417 3.5 11.9168 3.5 11.892 3.5C11.8671 3.5 11.8423 3.5 11.8174 3.5C11.7924 3.5 11.7675 3.5 11.7426 3.5C11.7176 3.5 11.6926 3.5 11.6676 3.5C11.6426 3.5 11.6175 3.5 11.5925 3.5C11.5674 3.5 11.5423 3.5 11.5172 3.5C11.4921 3.5 11.4669 3.5 11.4417 3.5C11.4166 3.5 11.3914 3.5 11.3661 3.5C11.3409 3.5 11.3157 3.5 11.2904 3.5C11.2651 3.5 11.2398 3.5 11.2145 3.5C11.1891 3.5 11.1638 3.5 11.1384 3.5C11.113 3.5 11.0876 3.5 11.0622 3.5C11.0367 3.5 11.0113 3.5 10.9858 3.5C10.9603 3.5 10.9348 3.5 10.9092 3.5C10.8837 3.5 10.8581 3.5 10.8325 3.5C10.8069 3.5 10.7813 3.5 10.7556 3.5C10.73 3.5 10.7043 3.5 10.6786 3.5C10.6529 3.5 10.6272 3.5 10.6014 3.5C10.5757 3.5 10.5499 3.5 10.5241 3.5C10.4983 3.5 10.4724 3.5 10.4466 3.5C10.4207 3.5 10.3948 3.5 10.3689 3.5C10.343 3.5 10.317 3.5 10.2911 3.5C10.2651 3.5 10.2391 3.5 10.2131 3.5C10.1871 3.5 10.161 3.5 10.135 3.5C10.1089 3.5 10.0828 3.5 10.0567 3.5C10.0306 3.5 10.0044 3.5 9.97825 3.5C9.95208 3.5 9.92588 3.5 9.89965 3.5C9.87342 3.5 9.84717 3.5 9.82089 3.5C9.79462 3.5 9.76831 3.5 9.74198 3.5C9.71565 3.5 9.6893 3.5 9.66291 3.5C9.63653 3.5 9.61012 3.5 9.58369 3.5C9.55726 3.5 9.5308 3.5 9.50431 3.5C9.47783 3.5 9.45132 3.5 9.42478 3.5C9.39824 3.5 9.37168 3.5 9.34509 3.5C9.3185 3.5 9.29189 3.5 9.26525 3.5C9.23861 3.5 9.21194 3.5 9.18525 3.5C9.15855 3.5 9.13184 3.5 9.10509 3.5C9.07835 3.5 9.05158 3.5 9.02479 3.5C8.99799 3.5 8.97117 3.5 8.94433 3.5C8.91748 3.5 8.89061 3.5 8.86371 3.5C8.83681 3.5 8.80989 3.5 8.78294 3.5C8.75599 3.5 8.72902 3.5 8.70202 3.5C8.67502 3.5 8.64799 3.5 8.62094 3.5C8.59389 3.5 8.56681 3.5 8.53971 3.5C8.51261 3.5 8.48548 3.5 8.45833 3.5C8.43118 3.5 8.404 3.5 8.37679 3.5C8.34959 3.5 8.32236 3.5 8.2951 3.5C8.26785 3.5 8.24057 3.5 8.21326 3.5C8.18596 3.5 8.15863 3.5 8.13127 3.5C8.10391 3.5 8.07653 3.5 8.04912 3.5C8.02172 3.5 7.99429 3.5 7.96683 3.5C7.93937 3.5 7.91189 3.5 7.88438 3.5C7.85687 3.5 7.82934 3.5 7.80178 3.5C7.77422 3.5 7.74663 3.5 7.71902 3.5C7.69141 3.5 7.66378 3.5 7.63612 3.5C7.60846 3.5 7.58077 3.5 7.55306 3.5C7.52535 3.5 7.49762 3.5 7.46986 3.5C7.4421 3.5 7.41431 3.5 7.3865 3.5C7.35869 3.5 7.33085 3.5 7.30299 3.5C7.27513 3.5 7.24725 3.5 7.21934 3.5C7.19142 3.5 7.16349 3.5 7.13553 3.5C7.10757 3.5 7.07958 3.5 7.05157 3.5C7.02356 3.5 6.99552 3.5 6.96746 3.5C6.9394 3.5 6.91131 3.5 6.8832 3.5C6.85509 3.5 6.82696 3.5 6.7988 3.5C6.77063 3.5 6.74245 3.5 6.71424 3.5C6.68603 3.5 6.65779 3.5 6.62953 3.5C6.60127 3.5 6.57299 3.5 6.54468 3.5C6.51637 3.5 6.48803 3.5 6.45967 3.5C6.43131 3.5 6.40293 3.5 6.37452 3.5C6.34611 3.5 6.31768 3.5 6.28922 3.5C6.26076 3.5 6.23228 3.5 6.20377 3.5C6.17526 3.5 6.14673 3.5 6.11817 3.5C6.08961 3.5 6.06103 3.5 6.03243 3.5C6.00382 3.5 5.97519 3.5 5.94653 3.5C5.91788 3.5 5.8892 3.5 5.86049 3.5C5.83179 3.5 5.80306 3.5 5.7743 3.5C5.74555 3.5 5.71677 3.5 5.68797 3.5C5.65916 3.5 5.63034 3.5 5.60149 3.5C5.57263 3.5 5.54376 3.5 5.51486 3.5C5.48595 3.5 5.45703 3.5 5.42808 3.5C5.39913 3.5 5.37016 3.5 5.34116 3.5C5.31216 3.5 5.28313 3.5 5.25409 3.5C5.22504 3.5 5.19597 3.5 5.16687 3.5C5.13778 3.5 5.10866 3.5 5.07951 3.5C5.05037 3.5 5.0212 3.5 4.992 3.5C4.96281 3.5 4.93359 3.5 4.90435 3.5C4.87511 3.5 4.84584 3.5 4.81655 3.5C4.78726 3.5 4.75795 3.5 4.72861 3.5C4.69927 3.5 4.66991 3.5 4.64052 3.5C4.61113 3.5 4.58172 3.5 4.55229 3.5C4.52285 3.5 4.49339 3.5 4.46391 3.5C4.43442 3.5 4.40492 3.5 4.37538 3.5C4.34585 3.5 4.3163 3.5 4.28672 3.5C4.25714 3.5 4.22753 3.5 4.1979 3.5C4.16828 3.5 4.13862 3.5 4.10895 3.5C4.07927 3.5 4.04957 3.5 4.01985 3.5C3.99013 3.5 3.96038 3.5 3.93061 3.5C3.90083 3.5 3.87104 3.5 3.84122 3.5C3.8114 3.5 3.78156 3.5 3.75169 3.5C3.72182 3.5 3.69193 3.5 3.66201 3.5C3.6321 3.5 3.60216 3.5 3.5722 3.5C3.54224 3.5 3.51225 3.5 3.48224 3.5C3.45223 3.5 3.42219 3.5 3.39214 3.5C3.36208 3.5 3.332 3.5 3.30189 3.5C3.27179 3.5 3.24166 3.5 3.21151 3.5C3.18135 3.5 3.15118 3.5 3.12098 3.5C3.09078 3.5 3.06055 3.5 3.03031 3.5C3.00006 3.5 2.96979 3.5 2.93949 3.5C2.9092 3.5 2.87888 3.5 2.84854 3.5C2.8182 3.5 2.78783 3.5 2.75744 3.5C2.72706 3.5 2.69664 3.5 2.66621 3.5C2.63577 3.5 2.60531 3.5 2.57483 3.5C2.54435 3.5 2.51384 3.5 2.48331 3.5C2.45278 3.5 2.42223 3.5 2.39165 3.5C2.36108 3.5 2.33048 3.5 2.29985 3.5C2.26923 3.5 2.23858 3.5 2.20791 3.5C2.17724 3.5 2.14655 3.5 2.11583 3.5C2.08511 3.5 2.05437 3.5 2.02361 3.5C1.99285 3.5 1.96206 3.5 1.93125 3.5C1.90044 3.5 1.86961 3.5 1.83875 3.5C1.8079 3.5 1.77702 3.5 1.74611 3.5C1.71521 3.5 1.68428 3.5 1.65333 3.5C1.62238 3.5 1.59141 3.5 1.56042 3.5C1.52942 3.5 1.4984 3.5 1.46736 3.5C1.43632 3.5 1.40525 3.5 1.37416 3.5C1.34308 3.5 1.31197 3.5 1.28083 3.5C1.2497 3.5 1.21854 3.5 1.18736 3.5C1.15618 3.5 1.12497 3.5 1.09375 3.5C1.06252 3.5 1.03127 3.5 1 3.5L1 4.5Z" fill="#666666"/>
</svg>
